<svg width="74" height="72" viewBox="0 0 74 72" fill="none" xmlns="http://www.w3.org/2000/svg">
<g filter="url(#filter0_d_55_132)">
<path d="M0.652732 52.8039C0.236946 53.1829 0 53.7195 0 54.282V65.4487C0 66.5533 0.895431 67.4487 2 67.4487H14.6398C15.1382 67.4487 15.6187 67.2626 15.9871 66.9269L59.2554 27.4891C60.1257 26.6959 60.1257 25.3261 59.2554 24.5329L46.8098 13.1891C46.0464 12.4933 44.8787 12.4933 44.1153 13.1891L0.652732 52.8039ZM72.7977 15.1458C74.4008 13.6846 74.4008 11.3242 72.7977 9.86301L63.179 1.09589C61.5759 -0.365297 58.9863 -0.365297 57.3831 1.09589L51.4826 6.4741C50.6122 7.26736 50.6122 8.63709 51.4826 9.43035L63.9281 20.7741C64.6915 21.4699 65.8592 21.4699 66.6226 20.7741L72.7977 15.1458Z" fill="#FFAE1B"/>
<path d="M1 54.282C1 54.0008 1.11847 53.7325 1.32637 53.543L0.652732 52.8039L1.32637 53.543L44.7889 13.9282C45.1707 13.5803 45.7545 13.5803 46.1362 13.9282L58.5818 25.2719C59.0169 25.6686 59.0169 26.3534 58.5818 26.7501L15.3135 66.1878L15.9871 66.9269L15.3134 66.1878C15.1293 66.3557 14.889 66.4487 14.6398 66.4487H2C1.44772 66.4487 1 66.001 1 65.4487V54.282ZM72.124 10.6021C73.292 11.6666 73.292 13.3421 72.124 14.4067L65.949 20.035C65.5673 20.3829 64.9835 20.3829 64.6017 20.035L52.1562 8.69129C51.721 8.29466 51.721 7.60979 52.1562 7.21316L58.0568 1.83495C59.2782 0.721682 61.284 0.721682 62.5054 1.83495L72.124 10.6021Z" stroke="black" stroke-width="2"/>
</g>
<defs>
<filter id="filter0_d_55_132" x="0" y="0" width="74" height="71.4487" filterUnits="userSpaceOnUse" color-interpolation-filters="sRGB">
<feFlood flood-opacity="0" result="BackgroundImageFix"/>
<feColorMatrix in="SourceAlpha" type="matrix" values="0 0 0 0 0 0 0 0 0 0 0 0 0 0 0 0 0 0 127 0" result="hardAlpha"/>
<feOffset dy="4"/>
<feColorMatrix type="matrix" values="0 0 0 0 0 0 0 0 0 0 0 0 0 0 0 0 0 0 1 0"/>
<feBlend mode="normal" in2="BackgroundImageFix" result="effect1_dropShadow_55_132"/>
<feBlend mode="normal" in="SourceGraphic" in2="effect1_dropShadow_55_132" result="shape"/>
</filter>
</defs>
</svg>
