<svg width="64" height="66" viewBox="0 0 64 66" fill="none" xmlns="http://www.w3.org/2000/svg">
<g filter="url(#filter0_d_51_1668)">
<path d="M30.0979 1.8541C30.6966 0.0114832 33.3034 0.0114785 33.9021 1.8541L40.4984 22.1555L61.8446 22.1555C63.7821 22.1555 64.5876 24.6348 63.0202 25.7736L45.7508 38.3205L52.3471 58.622C52.9458 60.4646 50.8369 61.9968 49.2694 60.858L32 48.3111L14.7306 60.858C13.1632 61.9968 11.0542 60.4646 11.6529 58.622L18.2492 38.3205L0.979801 25.7736C-0.587626 24.6348 0.21792 22.1555 2.15537 22.1555L23.5016 22.1555L30.0979 1.8541Z" fill="#D2D1B8"/>
<path d="M39.5474 22.4645L39.7719 23.1555H40.4984L61.8446 23.1555C62.8134 23.1555 63.2161 24.3951 62.4324 24.9645L45.163 37.5115L44.5752 37.9386L44.7997 38.6296L51.3961 58.931C51.6954 59.8523 50.6409 60.6184 49.8572 60.049L32.5878 47.502L32 47.075L31.4122 47.502L14.1428 60.049C13.3591 60.6184 12.3046 59.8523 12.6039 58.931L19.2003 38.6296L19.4248 37.9386L18.837 37.5115L1.56759 24.9645C0.783866 24.3951 1.18665 23.1555 2.15537 23.1555L23.5016 23.1555H24.2281L24.4526 22.4645L31.0489 2.16312C31.3483 1.2418 32.6517 1.24181 32.9511 2.16312L39.5474 22.4645Z" stroke="black" stroke-width="2"/>
</g>
<defs>
<filter id="filter0_d_51_1668" x="0.151367" y="0.472168" width="63.6973" height="64.7769" filterUnits="userSpaceOnUse" color-interpolation-filters="sRGB">
<feFlood flood-opacity="0" result="BackgroundImageFix"/>
<feColorMatrix in="SourceAlpha" type="matrix" values="0 0 0 0 0 0 0 0 0 0 0 0 0 0 0 0 0 0 127 0" result="hardAlpha"/>
<feOffset dy="4"/>
<feColorMatrix type="matrix" values="0 0 0 0 0 0 0 0 0 0 0 0 0 0 0 0 0 0 1 0"/>
<feBlend mode="normal" in2="BackgroundImageFix" result="effect1_dropShadow_51_1668"/>
<feBlend mode="normal" in="SourceGraphic" in2="effect1_dropShadow_51_1668" result="shape"/>
</filter>
</defs>
</svg>
